<?xml version="1.0"?>
<svg xmlns="http://www.w3.org/2000/svg" height="512px" viewBox="0 0 512 512" width="512px" class="hovered-paths"><g><path d="m313.105469 153.527344c-5.238281 1.75-8.066407 7.414062-6.320313 12.652344 5.007813 14.992187 7.546875 30.6875 7.546875 46.652343 0 81.148438-66.019531 147.167969-147.164062 147.167969-12.804688 0-25.4375-1.660156-37.671875-4.890625 3.449218-28.644531 12.859375-56.210937 27.550781-80.859375.152344-.195312.304687-.390625.445313-.597656 2.21875-3.242188 5.746093-5.097656 9.671874-5.097656 3.929688 0 7.457032 1.855468 9.679688 5.097656 1.898438 2.777344 5.015625 4.351562 8.25 4.351562 1.027344 0 2.070312-.160156 3.089844-.492187 4.214844-1.371094 7.027344-5.355469 6.90625-9.789063-.109375-3.925781 1.648437-7.5 4.828125-9.8125 3.175781-2.308594 7.125-2.878906 10.824219-1.558594 4.179687 1.484376 8.835937.042969 11.441406-3.542968 2.605468-3.589844 2.539062-8.464844-.164063-11.980469-2.398437-3.109375-3.074219-7.039063-1.859375-10.777344 1.210938-3.734375 4.070313-6.515625 7.835938-7.625 4.257812-1.25 7.175781-5.15625 7.175781-9.589843 0-4.433594-2.917969-8.339844-7.175781-9.59375-3.765625-1.109376-6.625-3.890626-7.835938-7.625-1.214844-3.734376-.539062-7.664063 1.859375-10.777344 2.703125-3.515625 2.769531-8.390625.164063-11.980469-2.605469-3.585937-7.265625-5.027344-11.441406-3.542969-3.699219 1.320313-7.644532.75-10.824219-1.558594-3.179688-2.308593-4.9375-5.886718-4.828125-9.8125.121094-4.433593-2.691406-8.417968-6.90625-9.789062-4.21875-1.371094-8.835938.203125-11.339844 3.859375-2.222656 3.242187-5.75 5.097656-9.679688 5.097656-3.925781 0-7.453124-1.855469-9.671874-5.097656-2.507813-3.660156-7.125-5.230469-11.339844-3.859375-4.21875 1.371094-7.03125 5.355469-6.90625 9.785156.109375 3.929688-1.652344 7.503906-4.832032 9.816406-3.175781 2.308594-7.121093 2.878907-10.820312 1.558594-4.183594-1.484375-8.835938-.042968-11.445312 3.542969-2.605469 3.585937-2.539063 8.464844.167968 11.976563 2.394532 3.113281 3.074219 7.042968 1.859375 10.777343-1.214843 3.738281-4.070312 6.519531-7.839843 7.628907-4.253907 1.25-7.175782 5.15625-7.175782 9.589843 0 4.4375 2.921875 8.339844 7.175782 9.59375 4.375 1.289063 6.785156 4.476563 7.808593 7.59375-10.207031 14.996094-18.882812 31.039063-25.886719 47.945313-6.507812 15.714844-11.449218 31.859375-14.828124 48.316406-33.691407-27.84375-53.429688-69.257812-53.429688-113.449219 0-66.867187 45.113281-125.410156 109.703125-142.355469 5.34375-1.402343 8.535156-6.871093 7.136719-12.210937-1.402344-5.339844-6.867188-8.539063-12.210938-7.132813-73.378906 19.25-124.628906 85.746094-124.628906 161.699219 0 54.070313 26.003906 104.492188 69.816406 135.910157-1.199218 10.265624-1.816406 20.628906-1.816406 31.074218v122.183594c0 5.523438 4.476562 10 10 10s10-4.476562 10-10v-122.183594c0-32.488281 6.304688-64.179687 18.734375-94.199218 9.726563-23.46875 22.90625-45.144532 39.175781-64.425782 1.859375-2.203125 4.457032-3.480468 7.320313-3.601562 2.824219-.125 5.464843.914062 7.457031 2.90625 3.648438 3.648437 3.929688 9.542968.644531 13.421875-7.453125 8.800781-14.175781 18.128906-20.140625 27.882812-.367187.496094-.683594 1.027344-.953125 1.585938-17.753906 29.574219-28.5625 63.003906-31.449219 97.628906-.058593.4375-.097656.878906-.101562 1.316406-.449219 5.800781-.6875 11.632813-.6875 17.484375v82.183594c0 5.523438 4.476562 10 10 10 5.519531 0 10-4.476562 10-10v-82.183594c0-1.476562.015625-2.949218.046875-4.421875 12.753906 3.058594 25.863281 4.605469 39.117187 4.605469 92.179688 0 167.167969-74.992188 167.167969-167.167969 0-18.125-2.886719-35.953125-8.574219-52.988281-1.75-5.238281-7.410156-8.070312-12.652343-6.316406zm-160.71875 44.082031c-8.398438.351563-16.328125 4.246094-21.757813 10.683594-.664062.789062-1.316406 1.585937-1.972656 2.378906 1.945312-2.667969 3.492188-5.652344 4.539062-8.875 1.339844-4.125 1.800782-8.410156 1.433594-12.605469 4.101563-.941406 8.035156-2.707031 11.542969-5.253906 3.507813-2.550781 6.398437-5.746094 8.566406-9.355469 3.875 1.648438 8.089844 2.53125 12.425781 2.53125h.003907c4.335937 0 8.554687-.882812 12.429687-2.53125 2.164063 3.609375 5.058594 6.808594 8.5625 9.355469 3.511719 2.546875 7.441406 4.3125 11.546875 5.253906-.371093 4.195313.089844 8.480469 1.429688 12.605469 1.339843 4.125 3.484375 7.863281 6.253906 11.039063-2.769531 3.175781-4.914063 6.914062-6.253906 11.035156-1.339844 4.125-1.800781 8.410156-1.429688 12.605468-4.105469.945313-8.035156 2.707032-11.546875 5.253907-3.507812 2.550781-6.398437 5.746093-8.5625 9.359375-1.652344-.703125-3.371094-1.261719-5.128906-1.675782.703125-.859374 1.40625-1.71875 2.125-2.566406 9.960938-11.757812 9.183594-29.542968-1.765625-40.492187-5.910156-5.914063-14.085937-9.109375-22.441406-8.746094zm0 0" data-original="#000000" class="hovered-path active-path" data-old_color="#000000" fill="#FFFFFF"/><path d="m167.167969 65.667969h.554687.046875c5.5 0 9.972657-4.445313 10-9.949219.027344-5.523438-4.429687-10.023438-9.949219-10.050781h-.652343c-5.523438 0-10 4.476562-10 10 0 5.523437 4.476562 10 10 10zm0 0" data-original="#000000" class="hovered-path active-path" data-old_color="#000000" fill="#FFFFFF"/><path d="m204.628906 70.476562c22.300782 5.851563 43.230469 17.105469 60.523438 32.550782 1.90625 1.707031 4.285156 2.542968 6.65625 2.542968 2.75 0 5.488281-1.125 7.464844-3.339843 3.675781-4.117188 3.320312-10.441407-.800782-14.117188-19.640625-17.542969-43.421875-30.332031-68.769531-36.980469-5.335937-1.40625-10.808594 1.789063-12.210937 7.132813-1.398438 5.339844 1.792968 10.808594 7.136718 12.210937zm0 0" data-original="#000000" class="hovered-path active-path" data-old_color="#000000" fill="#FFFFFF"/><path d="m118 491.519531c-2.628906 0-5.210938 1.070313-7.070312 2.929688-1.859376 1.859375-2.929688 4.441406-2.929688 7.070312 0 2.628907 1.070312 5.210938 2.929688 7.070313 1.859374 1.859375 4.441406 2.929687 7.070312 2.929687s5.210938-1.070312 7.070312-2.929687c1.859376-1.859375 2.929688-4.441406 2.929688-7.070313 0-2.628906-1.070312-5.210937-2.929688-7.070312-1.859374-1.859375-4.429687-2.929688-7.070312-2.929688zm0 0" data-original="#000000" class="hovered-path active-path" data-old_color="#000000" fill="#FFFFFF"/><path d="m502 34.433594c-3.058594 0-5.988281-.570313-8.6875-1.601563l10.3125-10.3125c3.902344-3.90625 3.902344-10.238281 0-14.144531-3.90625-3.902344-10.238281-3.902344-14.144531 0l-10.3125 10.3125c-1.03125-2.699219-1.601563-5.628906-1.601563-8.6875 0-5.523438-4.476562-10-10-10-5.519531 0-10 4.476562-10 10 0 8.925781 2.65625 17.238281 7.203125 24.207031-8.546875 14.121094-22.507812 24.179688-38.707031 27.753907l-.472656.105468c-5.394532 1.195313-8.796875 6.53125-7.605469 11.925782 1.03125 4.664062 5.167969 7.839843 9.753906 7.839843.714844 0 1.441407-.074219 2.171875-.238281l.46875-.101562c20.097656-4.4375 37.609375-16.378907 49.105469-33.210938 6.605469 3.902344 14.300781 6.152344 22.515625 6.152344 5.519531 0 10-4.480469 10-10 0-5.523438-4.476562-10-10-10zm0 0" data-original="#000000" class="hovered-path active-path" data-old_color="#000000" fill="#FFFFFF"/><path d="m380.894531 103.070312c5.519531 0 10-4.476562 10-10 0-5.523437-4.480469-10-10-10-2.972656 0-5.820312-.542968-8.453125-1.53125l10.125-10.121093c3.90625-3.90625 3.90625-10.238281 0-14.144531s-10.238281-3.90625-14.144531 0l-10.121094 10.125c-.988281-2.632813-1.53125-5.476563-1.53125-8.453126 0-5.519531-4.480469-10-10-10-5.523437 0-10 4.480469-10 10 0 8.84375 2.625 17.082032 7.121094 23.996094-8.457031 13.949219-22.261719 23.878906-38.269531 27.414063l-.472656.105469c-5.390626 1.191406-8.796876 6.527343-7.605469 11.921874 1.03125 4.664063 5.167969 7.84375 9.753906 7.84375.714844 0 1.441406-.078124 2.167969-.238281l.46875-.101562c19.914062-4.398438 37.269531-16.21875 48.671875-32.878907 6.546875 3.847657 14.160156 6.0625 22.289062 6.0625zm0 0" data-original="#000000" class="hovered-path active-path" data-old_color="#000000" fill="#FFFFFF"/><path d="m460.4375 146.992188c-2.972656 0-5.820312-.542969-8.449219-1.53125l10.121094-10.121094c3.90625-3.90625 3.90625-10.238282 0-14.144532-3.902344-3.902343-10.234375-3.902343-14.140625 0l-10.125 10.125c-.988281-2.632812-1.53125-5.476562-1.53125-8.449218 0-5.523438-4.476562-10-10-10-5.519531 0-10 4.476562-10 10 0 8.84375 2.625 17.078125 7.125 23.992187-8.460938 13.949219-22.261719 23.878907-38.273438 27.414063l-.46875.105468c-5.394531 1.191407-8.800781 6.527344-7.605468 11.921876 1.027344 4.664062 5.164062 7.84375 9.753906 7.84375.714844 0 1.4375-.078126 2.167969-.238282l.46875-.101562c19.910156-4.398438 37.265625-16.21875 48.671875-32.878906 6.546875 3.847656 14.160156 6.0625 22.285156 6.0625 5.523438 0 10-4.476563 10-10 0-5.523438-4.476562-10-10-10zm0 0" data-original="#000000" class="hovered-path active-path" data-old_color="#000000" fill="#FFFFFF"/><path d="m167.167969 131.226562c5.519531 0 10-4.480468 10-10v-23.175781c0-5.523437-4.480469-10-10-10-5.523438 0-10 4.476563-10 10v23.171875c0 5.523438 4.476562 10.003906 10 10.003906zm0 0" data-original="#000000" class="hovered-path active-path" data-old_color="#000000" fill="#FFFFFF"/><path d="m167.164062 294.441406c-5.519531 0-10 4.476563-10 10v23.175782c0 5.523437 4.480469 10 10 10 5.523438 0 10-4.476563 10-10v-23.175782c0-5.523437-4.476562-10-10-10zm0 0" data-original="#000000" class="hovered-path active-path" data-old_color="#000000" fill="#FFFFFF"/><path d="m52.382812 202.832031c-5.519531 0-10 4.476563-10 10 0 5.523438 4.480469 10 10 10h23.175782c5.519531 0 10-4.476562 10-10 0-5.523437-4.480469-10-10-10zm0 0" data-original="#000000" class="hovered-path active-path" data-old_color="#000000" fill="#FFFFFF"/><path d="m248.773438 212.832031c0 5.523438 4.480468 10 10 10h23.175781c5.523437 0 10-4.476562 10-10 0-5.523437-4.476563-10-10-10h-23.175781c-5.519532 0-10 4.480469-10 10zm0 0" data-original="#000000" class="hovered-path active-path" data-old_color="#000000" fill="#FFFFFF"/><path d="m102.390625 158.054688c2.558594 0 5.117187-.976563 7.070313-2.925782 3.90625-3.90625 3.90625-10.238281 0-14.144531l-16.386719-16.386719c-3.90625-3.90625-10.234375-3.90625-14.144531 0-3.902344 3.90625-3.902344 10.238282 0 14.140625l16.386718 16.390625c1.953125 1.949219 4.511719 2.925782 7.074219 2.925782zm0 0" data-original="#000000" class="hovered-path active-path" data-old_color="#000000" fill="#FFFFFF"/><path d="m224.871094 270.539062c-3.902344 3.90625-3.902344 10.238282 0 14.144532l16.386718 16.386718c1.953126 1.953126 4.511719 2.929688 7.070313 2.929688 2.5625 0 5.121094-.976562 7.074219-2.929688 3.902344-3.90625 3.902344-10.238281 0-14.144531l-16.386719-16.386719c-3.90625-3.902343-10.238281-3.902343-14.144531 0zm0 0" data-original="#000000" class="hovered-path active-path" data-old_color="#000000" fill="#FFFFFF"/><path d="m255.402344 124.597656c-3.90625-3.902344-10.238282-3.902344-14.144532 0l-16.386718 16.386719c-3.902344 3.90625-3.902344 10.238281 0 14.144531 1.953125 1.949219 4.511718 2.929688 7.070312 2.929688 2.5625 0 5.121094-.980469 7.074219-2.929688l16.386719-16.386718c3.90625-3.90625 3.90625-10.238282 0-14.144532zm0 0" data-original="#000000" class="hovered-path active-path" data-old_color="#000000" fill="#FFFFFF"/></g> </svg>
